{"title":"Batman.Unlimited.Monster.Mayhem.2015.720p.BluRay.x264","uid":12194523,"size":4996942351,"categoryP":"video","categoryS":"hd___movies","magnet":"?xt=urn:btih:08980b4579d56fa0dc1a889af4c282c05c0c92af&amp;dn=Batman.Unlimited.Monster.Mayhem.2015.720p.BluRay.x264&amp;tr=udp%3A%2F%2Ftracker.openbittorrent.com%3A80&amp;tr=udp%3A%2F%2Fopen.demonii.com%3A1337&amp;tr=udp%3A%2F%2Ftracker.coppersurfer.tk%3A6969&amp;tr=udp%3A%2F%2Fexodus.desync.com%3A6969","seeders":1,"leechers":1,"uploader":"restauc","files":2,"time":1438714293,"description":"[b]Batman.Unlimited.Monster.Mayhem.2015.720p.BluRay.x264.DUAL.By.1NS4N0[/b]\n[img]http://i.imgur.com/jvLY8JJ.jpg[/img]\n\n[b][url=http://www.imdb.com/title/tt4729754/]IMDB[/url][/b]\n\n[b]Storyline:[/b]\nThe Joker is aided in his Halloween quest to render modern technology useless and take over Gotham City by Solomon Grundy, Silver Banshee, Clayface and Scarecrow.\n\n[youtube]6sqBuWSDo70[/youtube]\n\n[code]General\nUnique ID                   : 221113962700055573176703861011969880614 (0xA659000C5C734839894065594D963226)\nFormat                      : Matroska\nFormat version              : Version 2\nFile size                   : 4.65 GiB\nDuration                    : 1h 20mn\nOverall bit rate            : 8 305 Kbps\nEncoded date                : UTC 2015-08-03 20:00:35\nWriting application         : mkvmerge v5.6.0 ('Kenya Kane') built on May 27 2012 16:44:04\nWriting library             : libebml v1.2.3 + libmatroska v1.3.0\n\nVideo\nID                          : 1\nFormat                      : AVC\nFormat/Info                 : Advanced Video Codec\nFormat profile              : &lt;a class=&quot;__cf_email__&quot; href=&quot;/cdn-cgi/l/email-protection&quot; data-cfemail=&quot;6e260709062e225a405f&quot;&gt;[email&amp;#160;protected]&lt;/a&gt;&lt;script data-cfhash='f9e31' type=&quot;text/javascript&quot;&gt;\n/* &lt;![CDATA[ */!function(){try{var t=&quot;currentScript&quot;in document?document.currentScript:function(){for(var t=document.getElementsByTagName(&quot;script&quot;),e=t.length;e--;)if(t[e].getAttribute(&quot;data-cfhash&quot;))return t[e]}();if(t&amp;&amp;t.previousSibling){var e,r,n,i,c=t.previousSibling,a=c.getAttribute(&quot;data-cfemail&quot;);if(a){for(e=&quot;&quot;,r=parseInt(a.substr(0,2),16),n=2;a.length-n;n+=2)i=parseInt(a.substr(n,2),16)^r,e+=String.fromCharCode(i);e=document.createTextNode(e),c.parentNode.replaceChild(e,c)}t.parentNode.removeChild(t);}}catch(u){}}()/* ]]&gt; */&lt;/script&gt;\nFormat settings, CABAC      : Yes\nFormat settings, ReFrames   : 9 frames\nMuxing mode                 : Header stripping\nCodec ID                    : V_MPEG4/ISO/AVC\nDuration                    : 1h 20mn\nBit rate                    : 3 229 Kbps\nNominal bit rate            : 3 400 Kbps\nWidth                       : 1 280 pixels\nHeight                      : 720 pixels\nDisplay aspect ratio        : 16:9\nFrame rate mode             : Constant\nFrame rate                  : 23.976 fps\nColor space                 : YUV\nChroma subsampling          : 4:2:0\nBit depth                   : 8 bits\nScan type                   : Progressive\nBits/(Pixel*Frame)          : 0.146\nStream size                 : 1.81 GiB (39%)\nWriting library             : x264 core 142 r2409+42 04be48a tMod [8-bit@all X86_64]\nEncoding settings           : cabac=1 / ref=9 / deblock=1:-1:-1 / analyse=0x3:0x133 / me=umh / subme=11 / psy=1 / fade_compensate=0.00 / psy_rd=0.40:0.00 / mixed_ref=1 / me_range=24 / chroma_me=1 / trellis=2 / 8x8dct=1 / cqm=0 / deadzone=21,11 / fast_pskip=1 / chroma_qp_offset=-2 / threads=36 / lookahead_threads=5 / sliced_threads=0 / nr=0 / decimate=1 / interlaced=0 / bluray_compat=0 / constrained_intra=0 / fgo=0 / bframes=8 / b_pyramid=2 / b_adapt=2 / b_bias=0 / direct=3 / weightb=1 / open_gop=0 / weightp=2 / keyint=240 / keyint_min=23 / scenecut=40 / intra_refresh=0 / rc_lookahead=60 / rc=2pass / mbtree=1 / bitrate=3400 / ratetol=1.0 / qcomp=0.60 / qpmin=10:10:10 / qpmax=51:51:51 / qpstep=4 / cplxblur=20.0 / qblur=0.5 / vbv_maxrate=40000 / vbv_bufsize=30000 / nal_hrd=none / filler=0 / ip_ratio=1.40 / aq=1:0.60 / aq-sensitivity=10.00 / aq-factor=1.00:1.00:1.00 / aq2=0 / aq3=0\nLanguage                    : English\nDefault                     : Yes\nForced                      : No\n\nAudio #1\nID                          : 2\nFormat                      : AC-3\nFormat/Info                 : Audio Coding 3\nMode extension              : CM (complete main)\nFormat settings, Endianness : Big\nMuxing mode                 : Header stripping\nCodec ID                    : A_AC3\nDuration                    : 1h 20mn\nBit rate mode               : Constant\nBit rate                    : 384 Kbps\nChannel(s)                  : 6 channels\nChannel positions           : Front: L C R, Side: L R, LFE\nSampling rate               : 48.0 KHz\nCompression mode            : Lossy\nStream size                 : 220 MiB (5%)\nTitle                       : Thyrso10\nLanguage                    : Portuguese\nDefault                     : Yes\nForced                      : Yes\n\nAudio #2\nID                          : 3\nFormat                      : DTS\nFormat/Info                 : Digital Theater Systems\nMode                        : 16\nFormat settings, Endianness : Big\nMuxing mode                 : Header stripping\nCodec ID                    : A_DTS\nDuration                    : 1h 20mn\nBit rate mode               : Constant\nBit rate                    : 1 509 Kbps\nChannel(s)                  : 6 channels\nChannel positions           : Front: L C R, Side: L R, LFE\nSampling rate               : 48.0 KHz\nBit depth                   : 24 bits\nCompression mode            : Lossy\nStream size                 : 866 MiB (18%)\nTitle                       : Thyrso10\nLanguage                    : English\nDefault                     : No\nForced                      : No\n\nAudio #3\nID                          : 4\nFormat                      : DTS\nFormat/Info                 : Digital Theater Systems\nMode                        : 16\nFormat settings, Endianness : Big\nMuxing mode                 : Header stripping\nCodec ID                    : A_DTS\nDuration                    : 1h 20mn\nBit rate mode               : Constant\nBit rate                    : 1 509 Kbps\nChannel(s)                  : 6 channels\nChannel positions           : Front: L C R, Side: L R, LFE\nSampling rate               : 48.0 KHz\nBit depth                   : 24 bits\nCompression mode            : Lossy\nStream size                 : 866 MiB (18%)\nDefault                     : No\nForced                      : No\n\nAudio #4\nID                          : 5\nFormat                      : DTS\nFormat/Info                 : Digital Theater Systems\nMode                        : 16\nFormat settings, Endianness : Big\nMuxing mode                 : Header stripping\nCodec ID                    : A_DTS\nDuration                    : 1h 20mn\nBit rate mode               : Constant\nBit rate                    : 1 509 Kbps\nChannel(s)                  : 6 channels\nChannel positions           : Front: L C R, Side: L R, LFE\nSampling rate               : 48.0 KHz\nBit depth                   : 24 bits\nCompression mode            : Lossy\nStream size                 : 866 MiB (18%)\nDefault                     : No\nForced                      : No\n\nMenu\n00:00:00.000                : en:Chapter 01\n00:07:35.872                : en:Chapter 02\n00:12:23.701                : en:Chapter 03\n00:21:30.247                : en:Chapter 04\n00:33:22.291                : en:Chapter 05\n00:40:40.646                : en:Chapter 06\n00:49:40.352                : en:Chapter 07\n01:00:00.888                : en:Chapter 08\n01:09:33.544                : en:Chapter 09\n01:17:37.319                : en:Chapter 10\n01:20:11.890                : en:Chapter 11\n\n[/code]\n\n[img]http://i.imgur.com/7NWTmVI.png[/img]\n[img]http://i.imgur.com/bMmPc1w.png[/img]","torrent":{"xt":"urn:btih:08980b4579d56fa0dc1a889af4c282c05c0c92af","amp;dn":"Batman.Unlimited.Monster.Mayhem.2015.720p.BluRay.x264","amp;tr":["udp%3A%2F%2Ftracker.openbittorrent.com%3A80","udp%3A%2F%2Fopen.demonii.com%3A1337","udp%3A%2F%2Ftracker.coppersurfer.tk%3A6969","udp%3A%2F%2Fexodus.desync.com%3A6969"],"infoHash":"08980b4579d56fa0dc1a889af4c282c05c0c92af","infoHashBuffer":{"type":"Buffer","data":[8,152,11,69,121,213,111,160,220,26,136,154,244,194,130,192,92,12,146,175]},"announce":[],"urlList":[]}}